<svg width="512px" height="512px" viewBox="0 0 512 512" version="1.1" xmlns="http://www.w3.org/2000/svg"
  xmlns:xlink="http://www.w3.org/1999/xlink">
  <g id="页面-1" stroke="none" stroke-width="1" fill="none" fill-rule="evenodd" fill-opacity="0.85">
    <g id="x-flag" fill="#000000">
      <path
        d="M243.032999,14.0546924 C250.857365,6.28664769 263.492539,6.31600461 271.280723,14.120324 L497.938107,241.247286 C505.714841,249.040131 505.731141,261.652716 497.974575,269.465636 L271.317021,497.769931 L271.280448,497.806675 C263.47799,505.62518 250.814698,505.63819 242.996192,497.835732 L14.2224881,269.531607 L14.1569622,269.465911 C6.37473902,261.627265 6.42047931,248.964048 14.2591259,241.181825 Z M141.924151,141.594938 C134.325775,149.013663 134.180139,161.18743 141.598864,168.785806 C141.652589,168.840831 141.706643,168.895533 141.761023,168.94991 L207.651932,234.836085 C211.402971,238.586854 213.510305,243.67415 213.510305,248.978729 L213.510305,261.195285 C213.510305,266.465027 211.430483,271.521824 207.722859,275.266649 L141.911108,341.738747 C134.202575,349.524626 134.193358,362.063361 141.890435,369.860565 L141.924151,369.894719 C149.607334,377.677847 162.145257,377.75887 169.928386,370.075687 C169.932611,370.071516 169.936833,370.067344 169.941054,370.063169 L235.882596,304.851206 C239.626726,301.148502 244.680056,299.071791 249.945845,299.071791 L262.191596,299.071791 C267.475518,299.071791 272.544736,301.16279 276.292021,304.888068 L341.745063,369.956714 C349.550181,377.715993 362.16474,377.688252 369.935655,369.894719 L370.148283,369.681472 C377.841224,361.966139 377.943261,349.512648 370.377774,341.672296 L306.267412,275.23271 C302.669965,271.504563 300.659576,266.525905 300.659576,261.345103 L300.659576,248.828575 C300.659576,243.612997 302.696975,238.603741 306.337385,234.868816 L370.34674,169.19761 C377.85596,161.493431 377.697915,149.160534 369.993735,141.651314 L369.964725,141.623096 L369.935439,141.594729 C362.118008,134.03821 349.695837,134.111035 341.96754,141.75869 L276.286263,206.754611 C272.541745,210.460056 267.486483,212.5385 262.218491,212.5385 L249.91898,212.5385 C244.669117,212.5385 239.629752,210.474298 235.888468,206.791385 L169.716591,141.651917 C162.013274,134.068787 149.658496,134.043457 141.924151,141.594938 Z"
        id="形状结合"></path>
    </g>
  </g>
</svg>
